<svg width="136" height="58" viewBox="0 0 136 58" fill="none" xmlns="http://www.w3.org/2000/svg">
<path d="M73.5679 22V6.49H79.3319C81.9279 6.49 83.9299 7.15733 85.3379 8.492C86.7606 9.82667 87.4719 11.7407 87.4719 14.234C87.4719 16.7127 86.7606 18.6267 85.3379 19.976C83.9299 21.3253 81.9279 22 79.3319 22H73.5679ZM76.3839 19.668H79.1559C82.7346 19.668 84.5239 17.8567 84.5239 14.234C84.5239 10.626 82.7346 8.822 79.1559 8.822H76.3839V19.668ZM93.9557 22.22C91.3157 22.22 89.9957 20.7387 89.9957 17.776V11.242H92.7457V17.82C92.7457 18.5827 92.8997 19.1473 93.2077 19.514C93.5157 19.8807 94.007 20.064 94.6817 20.064C95.415 20.064 96.0164 19.8147 96.4857 19.316C96.955 18.8027 97.1897 18.128 97.1897 17.292V11.242H99.9397V22H97.2557V20.394C96.537 21.6113 95.437 22.22 93.9557 22.22ZM102.802 22V11.242H105.486V12.914C105.853 12.298 106.344 11.8287 106.96 11.506C107.591 11.1833 108.295 11.022 109.072 11.022C111.609 11.022 112.878 12.496 112.878 15.444V22H110.128V15.576C110.128 14.74 109.967 14.1313 109.644 13.75C109.336 13.3687 108.852 13.178 108.192 13.178C107.385 13.178 106.74 13.4347 106.256 13.948C105.787 14.4467 105.552 15.114 105.552 15.95V22H102.802ZM115.495 8.932V6.248H118.575V8.932H115.495ZM115.671 22V11.242H118.421V22H115.671ZM124.821 22.22C124.043 22.22 123.347 22.0733 122.731 21.78C122.129 21.472 121.653 21.0613 121.301 20.548C120.963 20.0347 120.795 19.4553 120.795 18.81C120.795 18.018 121 17.3947 121.411 16.94C121.821 16.4707 122.489 16.1333 123.413 15.928C124.337 15.7227 125.576 15.62 127.131 15.62H127.901V15.158C127.901 14.4247 127.739 13.8967 127.417 13.574C127.094 13.2513 126.551 13.09 125.789 13.09C125.187 13.09 124.571 13.1853 123.941 13.376C123.31 13.552 122.672 13.8307 122.027 14.212L121.235 12.342C121.616 12.078 122.063 11.8507 122.577 11.66C123.105 11.4547 123.655 11.3007 124.227 11.198C124.813 11.0807 125.363 11.022 125.877 11.022C127.446 11.022 128.612 11.3887 129.375 12.122C130.137 12.8407 130.519 13.9627 130.519 15.488V22H127.945V20.284C127.695 20.8853 127.299 21.362 126.757 21.714C126.214 22.0513 125.569 22.22 124.821 22.22ZM125.393 20.328C126.111 20.328 126.705 20.0787 127.175 19.58C127.659 19.0813 127.901 18.4507 127.901 17.688V17.204H127.153C125.774 17.204 124.813 17.314 124.271 17.534C123.743 17.7393 123.479 18.1207 123.479 18.678C123.479 19.162 123.647 19.558 123.985 19.866C124.322 20.174 124.791 20.328 125.393 20.328ZM77.3079 51V37.844H71.9839V35.49H85.4479V37.844H80.1239V51H77.3079ZM85.2492 51V40.242H87.9332V42.134C88.4612 40.858 89.5905 40.154 91.3212 40.022L92.1572 39.956L92.3332 42.288L90.7492 42.442C88.9452 42.618 88.0432 43.542 88.0432 45.214V51H85.2492ZM97.299 51.22C96.5217 51.22 95.825 51.0733 95.209 50.78C94.6077 50.472 94.131 50.0613 93.779 49.548C93.4417 49.0347 93.273 48.4553 93.273 47.81C93.273 47.018 93.4784 46.3947 93.889 45.94C94.2997 45.4707 94.967 45.1333 95.891 44.928C96.815 44.7227 98.0544 44.62 99.609 44.62H100.379V44.158C100.379 43.4247 100.218 42.8967 99.895 42.574C99.5724 42.2513 99.0297 42.09 98.267 42.09C97.6657 42.09 97.0497 42.1853 96.419 42.376C95.7884 42.552 95.1504 42.8307 94.505 43.212L93.713 41.342C94.0944 41.078 94.5417 40.8507 95.055 40.66C95.583 40.4547 96.133 40.3007 96.705 40.198C97.2917 40.0807 97.8417 40.022 98.355 40.022C99.9244 40.022 101.09 40.3887 101.853 41.122C102.616 41.8407 102.997 42.9627 102.997 44.488V51H100.423V49.284C100.174 49.8853 99.7777 50.362 99.235 50.714C98.6924 51.0513 98.047 51.22 97.299 51.22ZM97.871 49.328C98.5897 49.328 99.1837 49.0787 99.653 48.58C100.137 48.0813 100.379 47.4507 100.379 46.688V46.204H99.631C98.2524 46.204 97.2917 46.314 96.749 46.534C96.221 46.7393 95.957 47.1207 95.957 47.678C95.957 48.162 96.1257 48.558 96.463 48.866C96.8004 49.174 97.2697 49.328 97.871 49.328ZM108.849 51L104.185 40.242H107.111L110.103 47.766L113.205 40.242H115.955L111.225 51H108.849ZM122.37 51.22C121.152 51.22 120.104 50.9927 119.224 50.538C118.344 50.0833 117.662 49.438 117.178 48.602C116.708 47.766 116.474 46.776 116.474 45.632C116.474 44.5173 116.701 43.542 117.156 42.706C117.625 41.87 118.263 41.2173 119.07 40.748C119.891 40.264 120.822 40.022 121.864 40.022C123.389 40.022 124.592 40.506 125.472 41.474C126.366 42.442 126.814 43.762 126.814 45.434V46.248H119.114C119.319 48.1693 120.419 49.13 122.414 49.13C123.015 49.13 123.616 49.042 124.218 48.866C124.819 48.6753 125.369 48.382 125.868 47.986L126.638 49.834C126.124 50.2593 125.479 50.5967 124.702 50.846C123.924 51.0953 123.147 51.22 122.37 51.22ZM121.974 41.892C121.167 41.892 120.514 42.1413 120.016 42.64C119.517 43.1387 119.216 43.8133 119.114 44.664H124.526C124.467 43.7693 124.218 43.0873 123.778 42.618C123.352 42.134 122.751 41.892 121.974 41.892ZM132.731 51.22C131.455 51.22 130.509 50.8753 129.893 50.186C129.292 49.482 128.991 48.4553 128.991 47.106V35.49H131.741V46.974C131.741 48.294 132.299 48.954 133.413 48.954C133.575 48.954 133.736 48.9467 133.897 48.932C134.059 48.9173 134.213 48.888 134.359 48.844L134.315 51.022C133.787 51.154 133.259 51.22 132.731 51.22Z" fill="#383E44"></path>
<path fill-rule="evenodd" clip-rule="evenodd" d="M33.2213 55C43.4791 55 51.7946 43.5833 51.7946 29.5C51.7946 15.4167 43.4791 4 33.2213 4C27.3785 4 22.1659 7.70405 18.7611 13.4951C16.0931 11.9086 12.8051 11 8.1222 11C-1.6472 11 -0.552441 14.9543 1.05732 20.7688C1.77734 23.3695 2.6004 26.3424 2.6004 29.5C2.6004 32.6576 1.77734 35.6305 1.05732 38.2312C-0.552442 44.0457 -1.6472 48 8.1222 48C12.8051 48 16.0931 47.0914 18.7611 45.5049C22.1659 51.296 27.3785 55 33.2213 55ZM18.7611 45.5049C16.1884 41.129 14.648 35.5615 14.648 29.5C14.648 23.4385 16.1884 17.871 18.7611 13.4951C21.9892 15.4146 24.3098 18.3265 27.0959 21.8223C28.2923 23.3235 29.5745 24.9323 31.0512 26.6165C32.4896 28.257 32.4896 30.743 31.0512 32.3835C29.5745 34.0677 28.2923 35.6765 27.0959 37.1777C24.3098 40.6735 21.9892 43.5854 18.7611 45.5049Z" fill="#0D76D8"></path></svg>